<?xml version="1.0" encoding="iso-8859-1"?>
<!-- Generator: Adobe Illustrator 19.1.0, SVG Export Plug-In . SVG Version: 6.00 Build 0)  -->
<svg version="1.1" id="Capa_1" xmlns="http://www.w3.org/2000/svg" xmlns:xlink="http://www.w3.org/1999/xlink" x="0px" y="0px"
	 viewBox="0 0 505.755 505.755" style="enable-background:new 0 0 505.755 505.755;" xml:space="preserve">
<g>
	<path d="M505.755,383.929l-2.213-13.648l-376.046,60.996l99.792-44.174c0.035-0.035,0.069-0.028,0.104-0.048
		c0.007,0,0.007,0,0.007,0c0.007-0.007,0.007-0.007,0.007-0.007c0.802-0.366,1.5-0.871,2.074-1.466l273.71-273.717
		c2.703-2.703,2.703-7.073,0-9.777l-83.115-83.122c-2.703-2.703-7.073-2.703-9.777,0l-78.296,78.296
		c-0.007,0-0.007,0.007-0.007,0.007l-29.261,29.261c-0.055,0.055-0.118,0.118-0.18,0.187L144.028,285.23
		c-0.09,0.083-0.166,0.166-0.249,0.249l-7.274,7.274c-0.602,0.602-1.086,1.314-1.431,2.095l-52.782,119.24V31.35H68.464v331.146
		L13.635,30.202L0,32.456l67.413,408.563L5.704,451.031l2.213,13.648l60.547-9.818v32.828h6.644l0.187,1.127l6.845-1.127h0.152
		v-0.028l6.644-1.099l-5.628-34.114L505.755,383.929z M220.644,374.851c-3.747,1.362-14.955,4.418-20.466-5.068
		c-1.162-1.998-1.632-4.356-1.639-6.914c0-5.912,2.517-12.902,4.916-19.111l153.072-153.667l24.441,24.441L220.644,374.851z
		 M415.187,33.631l73.338,73.338l-68.83,68.83l-73.048-73.629L415.187,33.631z M336.87,111.948l73.048,73.636l-19.173,19.173
		l-29.337-29.344c-1.293-1.3-3.049-2.026-4.888-2.026h-0.007c-1.839,0-3.595,0.733-4.888,2.033l-144,144.56
		c-0.525-1.134-1.265-2.199-2.254-3.187c-0.857-0.857-1.756-1.576-2.703-2.192l144.077-144.084c2.703-2.703,2.703-7.073,0-9.777
		l-29.33-29.33L336.87,111.948z M154.572,294.239L307.63,141.195l24.441,24.441L185.804,311.904c-1.943,0.194-3.9,0.449-5.836,0.705
		c-7.668,1.009-15.591,2.06-21.185-1.39c-4.425-2.731-5.67-6.582-5.663-10.039C153.12,298.311,153.978,295.705,154.572,294.239z
		 M142.099,313.135c1.888,3.637,4.888,7.052,9.41,9.846c9.783,6.057,21.157,4.543,30.263,3.333
		c5.006-0.664,10.62-1.397,13.068-0.242c-0.277,2.351-2.247,7.412-3.595,10.897c-2.918,7.495-6.534,16.815-6.534,25.969
		c0,4.729,0.968,9.417,3.505,13.787c2.296,3.955,5.096,6.852,8.159,8.926L88.943,433.213L142.099,313.135z"/>
</g>
<g>
</g>
<g>
</g>
<g>
</g>
<g>
</g>
<g>
</g>
<g>
</g>
<g>
</g>
<g>
</g>
<g>
</g>
<g>
</g>
<g>
</g>
<g>
</g>
<g>
</g>
<g>
</g>
<g>
</g>
</svg>
