<?xml version="1.0" encoding="iso-8859-1"?>
<!-- Generator: Adobe Illustrator 19.0.0, SVG Export Plug-In . SVG Version: 6.00 Build 0)  -->
<svg version="1.1" id="Layer_1" xmlns="http://www.w3.org/2000/svg" xmlns:xlink="http://www.w3.org/1999/xlink" x="0px" y="0px"
	 viewBox="0 0 300 300" style="enable-background:new 0 0 300 300;" xml:space="preserve">
<g>
	<g>
		<g>
			<path d="M256.25,137.5H250V85.025C250,34.169,214.838,0,162.5,0h-25C86.119,0,51.606,35.169,51.606,87.506
				c0,3.456,2.794,6.25,6.25,6.25c3.462,0,6.25-2.794,6.25-6.25c0-45.563,28.806-75.006,73.394-75.006h25
				c45.563,0,75,28.469,75,72.525V137.5H43.75c-3.456,0-6.25,2.794-6.25,6.25v91.275C37.5,272.069,61.681,300,93.75,300h112.5
				c32.069,0,56.25-27.931,56.25-64.975V143.75C262.5,140.294,259.706,137.5,256.25,137.5z M250,235.025
				c0,26.075-15.025,52.475-43.75,52.475H93.75C65.025,287.5,50,261.1,50,235.025V150h200V235.025z"/>
			<path d="M131.25,224.869V250c0,10.338,8.412,18.75,18.75,18.75s18.75-8.412,18.75-18.75v-25.131
				c7.787-5.869,12.5-15.1,12.5-24.869c0-17.231-14.019-31.25-31.25-31.25s-31.25,14.019-31.25,31.25
				C118.75,209.769,123.463,219.006,131.25,224.869z M150,181.25c10.338,0,18.75,8.412,18.75,18.75
				c0,6.675-3.513,12.706-9.394,16.131c-1.925,1.112-3.106,3.181-3.106,5.4V250c0,3.45-2.8,6.25-6.25,6.25s-6.25-2.8-6.25-6.25
				v-28.469c0-2.219-1.181-4.275-3.106-5.4c-5.875-3.425-9.394-9.456-9.394-16.131C131.25,189.662,139.662,181.25,150,181.25z"/>
		</g>
	</g>
</g>
<g>
</g>
<g>
</g>
<g>
</g>
<g>
</g>
<g>
</g>
<g>
</g>
<g>
</g>
<g>
</g>
<g>
</g>
<g>
</g>
<g>
</g>
<g>
</g>
<g>
</g>
<g>
</g>
<g>
</g>
</svg>
